<svg xmlns="http://www.w3.org/2000/svg" width="971" height="971" viewBox="0 0 971 971"><path fill="#e2e2e2" d="M0 0h971v971H0z"/><path d="m697.587 353.966 98.01.165c12.68 21.057 26.74 42.012 39.725 62.856a5955 5955 0 0 1 42.472 70.486 2331 2331 0 0 1-26.58 42.48c-16.301 25.062-33.498 49.59-49.223 75.055-2.433 3.94-5.518 8.783-8.411 12.336-32.193-.591-66.413.02-98.759-.046 15.41-22.945 29.373-47.972 44.637-70.21-2.005-1.699-3.875-3.488-5.787-5.288-2.349.307-9.343 1.908-8.99-2.807 1.943-.882 1.46.35 4.68 1.09l.551-.462c.095-6.022-7.675-2.282-3.458-11.97a58 58 0 0 1-1.571-2.283c-7.633-11.747-10.375-31.146-7.151-44.697 4.458-18.737 14.784-32.594 30.753-42.848-17.682-26.742-34.252-56.266-50.898-83.857"/><path fill="#e2e2e2" d="M733.636 462.988a358 358 0 0 0 22.808 16.496c-4.086 7.253-7.596 16.254-12.342 23.01-.363.514-3.213 2.381-3.894 2.824-4.061 2.77-7.769 5.278-11.98 7.837-5.541-17.83-4.808-34.193 5.408-50.167"/><path fill="#e2e2e2" d="M833.115 489.122c6.293 1.51 13.148 2.33 19.57 3.115-.203 11.317-1.885 19.953-6.273 30.5-.762 1.831-2.336 5.983-4.084 6.696l-1.21-.726c-7.67-5.203-14.144-10.655-21.571-15.989 6.36-8.205 9.519-14.325 13.568-23.596"/><path fill="#e2e2e2" d="M815.933 520a1760 1760 0 0 0 22.19 16.54c-5.602 6.979-13.49 12.57-21.233 16.92-4.9 2.452-7.942 3.43-13.238 4.775-1.638-5.644-3.314-14.239-4.63-20.101 6.158-5.075 11.715-12.025 16.91-18.133"/><path fill="#e2e2e2" d="m768.168 436.15.953.281c3.123 5.625 7.482 12.205 11.153 17.22-8.323 4.424-14.26 11.264-19.657 18.857l-6.532-4.443c-5.54-3.774-10.62-7.2-16.345-10.671 9.154-10.299 17.767-15.948 30.428-21.244"/><path fill="#e2e2e2" d="M784.525 458.384c4.365 3.728 10.72 10.449 14.962 14.674-3.03 4.9-8.48 12.06-11.97 17.121l-3.067-1.955a418 418 0 0 1-18.25-11.771c5.646-7.795 10.863-12.373 18.325-18.069"/><path fill="#e2e2e2" d="M804.507 477.651c1.35.398 6.246 3.333 8.017 4.209 4.58 2.263 8.868 3.947 13.603 5.82-2.574 6.988-6.618 13.605-10.691 19.809l-.688.653c-2.402-.265-17.588-12.814-20.337-15.182 2.722-5.038 6.736-10.674 10.096-15.309"/><path fill="#e2e2e2" d="M762.53 483.372a270 270 0 0 1 20.374 13.606c-3.995 5.641-8.526 11.265-12.805 16.725-.784 1.184-.383.86-1.631 1.464-4.414-2.463-12.11-8.005-16.506-11.05 3.156-6.503 6.878-14.71 10.569-20.745"/><path fill="#e2e2e2" d="m788.749 501.428 20.585 14.857c-3.626 5.355-8.828 10.336-13.886 14.336l-.927.239c-.222-.537-1.323-2.99-1.774-3.201-5.978-2.802-11.427-6.146-17.072-9.565 4.569-5.271 8.89-11.088 13.074-16.666"/><path fill="#e2e2e2" d="M821.802 409.64c5.752-.944 11.18 2.957 12.117 8.711.939 5.753-2.968 11.177-8.723 12.11-5.746.93-11.16-2.97-12.097-8.715-.936-5.746 2.958-11.163 8.703-12.106"/><path fill="#e2e2e2" d="M825.427 446.496c4.669 4.788 3.755 25.398 2.828 31.862-3.646-1.29-5.99-2.432-9.489-4.149-3.048-1.629-5.682-3.405-8.568-5.296 5.237-7.415 10.026-15.022 15.229-22.417"/><path fill="#e2e2e2" d="M793.137 545.751c1.632 1.43 2.783 11.063 3.118 13.544-11.584.654-21.083-.758-31.67-5.277-3.574-1.77-6.012-3.161-9.422-5.251 10.938 2.383 27.46.603 37.974-3.016"/><path fill="#e2e2e2" d="M781.275 433.046c14.915-.765 22.627.507 36.596 5.731-2.702.787-6.672 1.563-9.503 2.203-6.31 1.612-13.07 4.332-19.178 6.68-1.898-2.533-8.977-11.351-9.273-14.04z"/><path fill="#e2e2e2" d="M834.108 451.566c7.537 5.647 16.532 22.43 17.248 31.771a100 100 0 0 1-15.972-2.836c1.289-11.603 1.484-17.711-1.276-28.935"/><path fill="#e2e2e2" d="M745.316 548.42c.065.041 7.684 6.208 8.728 6.998a501 501 0 0 1-10.39 17.134c-2.12-1.197-6.721-4.814-8.861-6.408a208 208 0 0 0 10.523-17.723"/><path fill="#e2e2e2" d="m815.73 445.278 1.073-.014c.087 1.766-10.176 16.835-11.92 19.508l-4.427-3.626c-2.544-2.417-4.582-4.568-6.964-7.152 7.514-4.621 13.751-6.805 22.238-8.716"/><path fill="#e2e2e2" d="M750.538 511.257c4.101 2.162 9.382 6.68 13.08 9.716l-3.484 2.906c-11.996 7.998-10.01-4.94-9.596-12.622"/><path fill="#e2e2e2" d="m741.923 512.616.289.214c-.838 4.076-1.583 13.502-6.125 14.15-1.464-.54-1.418-.456-2.543-1.51-1.208-1.583-2.39-3.319-3.547-4.952 3.803-2.908 7.869-5.372 11.926-7.902"/><path fill="#e2e2e2" d="M774.566 528.996c2.293.173 4.229.355 6.572.473 1.608 2.55.593 7.934.322 10.912-.112 1.233-.565 1.198-1.508 1.754-.566-.996-.464-.864-.49-1.993.102-2.346.264-2.744-.674-4.791l-.657.215c-1.38 3.566-1.278 5.037-1.618 8.749-2.092-6.72-1.943-8.073-1.947-15.32"/><path fill="#e2e2e2" d="M757.194 529.098c2.148-.058 5.955-.536 7.447.658l.055.914-.92.907a51 51 0 0 0-3.352.1l-.512.782c.506 1.11 2.937 2.138 4.264 2.889l-.02.568q-2.359.368-4.727.67c.223 1.152.256 1.25.715 2.33 1.675.5 2.858 1.064 4.46 1.775l.095.573c-2.551.286-4.908.258-7.468.282z"/><path fill="#e2e2e2" d="M767.7 528.793c4.472.56 6.479 8.813 5.674 12.556l-.755.472c-1.518-1.254-1.05-.947-1.67-3.269-.293-.654-.61-1.069-1.004-1.674-.998.51-1.751 3.272-2.294 4.64l-.758.066c-.652-4.2.062-8.671.808-12.791"/><path fill="#e2e2e2" d="M785.643 529.12c2.447-.111 4.411.206 6 2.284-.314 1.29-.001.757-1.107 1.532a101 101 0 0 0-3.455-1.602l-.697.464-.037 1.266c2.09 2.844 5.053 2.16 5.437 5.642-.7 1.666-1.147 1.887-2.5 3.046-2.393.157-5.244-.084-5.575-2.957 1.465-.627 3.85 1.015 5.73.079l-.08-.68c-2.107-3.043-5.374-2.078-5.969-5.619.603-1.896.81-1.982 2.253-3.454"/><path fill="#e2e2e2" d="M742.029 529.156c2.321-.11 2.54-.125 4.779.369l.298.673c-1.29 1.035-3.37.957-4.3 2.157 1.825 2.5 3.95 3.278 4.932 5.85-.235 2.083-.117 1.395-1.51 3.281-3.056.117-3.637.13-5.68-2.267.6-.966 1.762-.297 4.03-.921.735-3.114-3.982-2.72-5.015-6.234.57-1.672 1.059-1.85 2.466-2.908"/><path fill="#e2e2e2" d="M731.334 528.79c2.29.974 1.679.908 3.297 3.483 1.226-1.015 1.412-1.541 2.324-2.873 1.368-.282.701-.327 2.06.242-.041 1.396-2.061 3.782-3.03 5.2-.034 2.105.303 4.295-1.101 5.684-1.906-.947-4.081-9.397-3.55-11.735"/><path fill="#e2e2e2" d="M751.98 528.093c1.242.708 2.22.996 3.524 1.825l-.19.868-1.186.259c-3.148.68.267 6.42-1.928 10.998-2.201-2.675-.63-6.616-1.367-10.433-.868-.387-1.584-.499-2.521-.635l-.133-.898.454-.603c1.542-.32 2.054-.368 3.347-1.381"/><path d="M178.35 354.127c10.786.315 23.163.016 34.057.023l65.603.145c-14.472 24.348-30.712 48.4-45.84 72.435-12.342 19.61-24.54 40.096-37.438 59.269 16.245 24.754 32.117 51.276 47.787 76.384 3.925 6.291 34.33 53.419 34.591 55.316-32.784-.348-66.592.64-99.277-.305-28.509-42.777-55.93-87.19-83.809-130.458 8.506-14.41 19.906-31.36 29.04-45.52a3822 3822 0 0 0 55.286-87.29"/><path d="M665.151 442.552c11.069-.776 21.88 2.06 30.584 9.07a37.89 37.89 0 0 1 14.025 25.818 37.67 37.67 0 0 1-8.256 27.494c-7.965 9.64-18.443 13.407-30.507 14.57-11.885.655-23.35-2.367-32.393-9.935-18.175-15.21-16.046-45.774 3.223-59.131 7.588-5.26 14.326-7.083 23.324-7.886"/><path fill="#e2e2e2" d="M662.298 458.414c12.8-3.076 25.663 4.833 28.697 17.642 3.035 12.81-4.914 25.647-17.734 28.64-12.76 2.98-25.526-4.926-28.547-17.677-3.02-12.751 4.843-25.543 17.584-28.605"/><path d="m474.831 444.39 21.942-.134c14.836-.073 29.608-.49 41.376 10.44 6.89 6.398 9.786 15.697 9.961 24.894.22 11.432-2.374 20.505-10.336 28.835-11.499 10.285-25.92 9.766-40.383 9.797l-22.33.013c.227-24.58-.497-49.346-.23-73.844"/><path fill="#e2e2e2" d="M492.485 459.48c9.465-.117 23.186-1.65 30.745 5.042 9.215 8.16 8.755 24.24.8 33.135-8.642 7.247-20.615 6.176-31.367 6.093q-.209-22.136-.178-44.27"/><path d="M353.397 444.383a716 716 0 0 1 17.826.175c1.212 3.101 2.947 6.795 4.458 9.779 10.54 20.818 19.343 43.27 30.088 63.884l-19.032.083c-2.114-3.866-4.82-10.592-6.873-14.906l-8.864-.002-26.43-.012c-2.376 4.567-4.428 9.993-6.26 14.827l-19.335.017c1.012-2.47 2.154-4.955 3.282-7.378 10.282-22.077 21.8-43.982 31.14-66.467"/><path fill="#e2e2e2" d="M362.017 463.59c1.918 2.06 10.442 22.22 12.14 26.05l-10.706-.013-12.565-.048c3.398-8.915 7.16-17.32 11.131-25.988"/><path d="m559.5 444.247 58.703-.044-.157 14.88-41.093-.034.01 14.21q18.64-.004 37.276.298c.13 4.704.003 9.734-.034 14.462-10.165.306-20.814.11-31.016.066l-6.213-.117.014 15.158 42.197.096.118 14.984-59.57-.038c-.508-24.206-.178-49.624-.235-73.921"/><path d="M248.542 444.144c5.928-.114 12.761.15 18.756.241 1.972 6.4 6.137 15.738 8.613 22.25 3.872 10.183 7.761 20.855 11.913 30.884 6.955-16.372 14.075-36.461 20.728-53.426 5.81.185 11.896.158 17.73.211l-5.603 15.38a1976 1976 0 0 0-21.988 58.568l-20.903-.003c-9.128-24.89-19.751-49.304-29.246-74.105"/><path d="M411.577 444.389c5.722-.105 11.741-.007 17.486.002l.03 59.32a1121 1121 0 0 1 37.919.175l.038 14.243-55.18.059c-.946-22.526-.461-50.999-.293-73.8"/><path d="M400.963 528.68c9.046-.576 11.418 7.847 4.684 12.387-8.211 1.189-11.034-7.075-4.684-12.388"/><path fill="#e2e2e2" d="M401.635 530.842c5.928-.062 6.201 4.926 3.03 8.497-5.627-.755-5.714-4.611-3.03-8.497"/><path d="M365.71 528.65c8.744-.554 10.246 7.826 4.194 12.289-8.924.634-10.498-7.285-4.195-12.29"/><path fill="#e2e2e2" d="M366.174 530.877c5.779-.296 5.67 4.09 3.34 7.908-5.971.185-5.934-3.91-3.34-7.908"/><path d="M290.68 529.02a6.036 6.036 0 1 1 2.413 11.829 6.036 6.036 0 0 1-2.412-11.829"/><path fill="#e2e2e2" d="M290.57 530.9c5.704.424 5.695 4.392 2.5 8.085-5.387-.634-5.618-4.479-2.5-8.084"/><path d="M692.732 528.61c2.472.109 4.614 1.097 5.835 3.339a6.42 6.42 0 0 1 .4 5.232c-.905 2.595-2.053 3.165-4.41 4.282-8.415-1.068-8.805-8.76-1.825-12.852"/><path fill="#e2e2e2" d="M693.126 530.82c4.964 1.538 4.509 5.32 1.319 8.49-5.13-1.72-4.941-5.221-1.319-8.49"/><path d="M432.43 528.634c7.983-.187 11.968 3.011 8.06 11.142-2.726 1.581-4.98 1.234-8.094 1.204q-.03-6.173.035-12.346"/><path fill="#e2e2e2" d="M435.1 530.68c5.354.578 4.902 3.649 3.536 7.77-2.35.345-1.968.687-3.49-.288-1.095-2.192-.461-5.008-.045-7.481"/><path d="M603.548 528.561c7.493.796 8.428 9.26 2.23 12.72a30 30 0 0 1-1.241-.13c-6.685-.885-7.328-8.854-.989-12.59"/><path fill="#e2e2e2" d="M603.182 530.894c1.066.094 1.304.182 2.352.43 2.823 2.303 1.875 4.683.548 7.56-5.638-.302-5.288-4.223-2.9-7.99"/><path d="M516.464 528.664c7.54-.252 12.425 3.255 7.648 10.884-9.997 5.374-7.82-4.342-7.648-10.884"/><path fill="#e2e2e2" d="M518.84 530.417c5.067 1.073 5.03 3.08 3.739 7.553-1.722.511-2.061.89-3.527.02-.892-1.997-.366-5.225-.212-7.573"/><path d="M300.658 528.74c12.567-.279 6.685 1.282 8.01 9.142.187 1.104.434 1.243.427 2.591l-.628.473-1.354-.216c-.644-2.21-.765-3.442-2.695-4.53-1.21.76-1.88 3.184-2.456 4.644l-.88.004.7.252-.133.134-.52-.245c-.8-1.599-.495-9.888-.47-12.25"/><path d="M612.597 528.836c1.44-.006 3.593-.118 4.936.378 2.233.824.566 4.385 1.707 6.366.96 1.665.812 2.29.484 4.175-9.53 4.61-7.339-4.79-7.127-10.92"/><path d="M383.607 535.867c-.086-2.767-.32-3.976.643-6.587l.665-.191c1.625 2.906 1.416 9.122.494 12.251-2.73-1.064-4.895-5.734-6.515-8.437.044 2.916.259 4.973-.795 7.732l-.509.109c-1.642-3.663-1.145-8.438-.976-12.434 3.808.792 4.352 3.682 6.993 7.557"/><path d="M561.603 528.707c10.378-.328 7.362 2.19 6.23 7.742.03-.14 1.355 3.643 1.53 4.223-1.4.545-.658.418-2.33-.053a462 462 0 0 0-2.992-5.874c.013 2.631.1 3.548-.627 6.113l-.857.278c-1.404-2.618-1.06-9.32-.954-12.43"/><path d="M643.882 528.62c8.709-.135 8.738 1.233 6.134 7.216-.672 1.545 1.788 2.493 1.687 4.944l-1.16.631c-1.134-1.308-2.918-4.22-4.018-4.742-.998 2.465.453 2.682-1.02 4.239l-1.07-.097c-.736-.971-.642-1.174-.627-2.412z"/><path d="M701.876 528.37c2.783.98 5.18 5.74 6.928 8.483-.014-2.702-.349-4.586.627-7.03l.672-.19c1.74 2.794 1.376 8.764.543 11.847-3.022-1.11-5.194-5.45-6.96-8.24.057 2.008.541 5.938-1.152 7.165-1.896-2.451-1.329-9.133-.658-12.035"/><path d="m504.256 528.31 1.632.406c1.612 1.288 3.788 5.436 4.989 7.476-.041-2.698-.21-4.123.69-6.72l.625-.238c1.551 2.753 1.55 9.586.233 12.386-1.893-.964-4.578-6.217-5.919-8.457.057 2.57.402 5.799-1.098 7.868-1.888-2.447-1.274-9.577-1.152-12.72"/><path d="m494.96 528.361 1.88.403c2.282 2.408 3.896 8.174 3.947 11.57l-.579.52c-1.724-1.008-1.24-.901-2.233-3.172-.919.027-1.82.09-2.737.149-1.553 1.435-2.113 2.254-4.143 2.762l-.114-.828c1.72-3.318 2.881-7.758 3.98-11.404"/><path d="M267.322 528.82c1.259.154.816.035 1.947.62 1.8 2.721 4.418 8.206 3.814 11.526l-.886.248c-1.107-.828-1.32-1.864-1.835-3.185-5.427-.258-3.435 2.057-6.614 2.402-.466-2.254 2.543-8.992 3.574-11.61"/><path d="M553.307 528.395c2.103 1.091 5.642 9.8 6.062 12.3l-1.101.468-1.057-.565c-.599-1.086-.99-1.994-2.017-2.752l-2.602.191c-1.571 1.327-1.95 1.858-3.868 2.347l-.429-.51c1.738-3.902 2.965-7.722 5.012-11.48"/><path d="M472.521 527.899c2.917.671 6.562 11.327 5.252 12.964l-.848-.44c-.673-1.245-.971-1.846-1.98-2.875l-2.51.233c-.923.838-2.748 2.73-3.889 2.615.206-2.51 2.82-10.217 3.975-12.497"/><path d="M581.526 528.276c1.859.691 1.263.096 2.113 1.542-.13 1.47-.207 1.71.01 3.205 1.247 1.107.562.886 2.027.931 1.87-1.23 2.4-3.205 3.696-5.36.986 1.897 1.006 11.018-.21 13.043-.95-.654-.876-.62-1.428-1.645.074-2.212.513-2.988-1.28-4.328-2.87.459-2.404 3.661-4.55 5.444-.818-2.305-.657-10.2-.378-12.832"/><path d="M336.205 528.311c2.083 1.132 6.529 10.275 5.134 12.164l-1.243-.334a20 20 0 0 0-1.639-2.098l-2.55.163c-1.59 1.112-2.393 1.94-4.16 2.02-.198-1.022 3.747-10.445 4.458-11.915"/><path d="M449.467 528.38c1.854 1.28 5.46 9.968 5.446 12.328l-.952.284c-1.307-.677-1.68-2.212-3.202-3.489l-2.223.516c-1.396 1.415-1.484 1.477-3.162 2.552l-.58-.154c.293-2.54 3.389-9.749 4.673-12.038"/><path d="M319.651 528.779c3.089-.128 6.56-.006 9.68.04-2.072 3.795-3.98 6.499-6.498 10.003 2.989.004 5.334-.947 6.142 2.046-3.186.165-7.291.063-10.548.073 2.536-3.147 4.932-6.603 7.294-9.898-2.207.028-4.107.392-5.821-.65z"/><path d="M633.448 528.78c2.099.005 5.308-.397 6.71.578l.059.954c-1.273 1.305-1.53.031-4.282.878l-.586 1.292c1.503 1.951 2.8.08 4.409 1.857-1.858 2.796-3.15-.505-4.777 4.385 1.992.004 3.803-.221 5.434.868l-.274.6c-2.366 1.086-4.171.761-6.808.677-.068-4.21-.061-7.884.115-12.088"/><path d="M538.906 528.676c2.888-.053 4.372-.378 6.827 1.171-.879 1.364-2.326-.118-4.811 1.754l-.058 1.088c1.345 1.558 1.417.624 4.363 1.241l.393.654c-1.105 2.083-3.022-.237-5.293 2.844.375.627.531.767 1 1.326 2.195.271 3.547.302 5.322 1.635-1.727.97-5.63.671-7.809.678q-.062-6.196.066-12.39"/><path d="M668.21 528.45c1.929 1.308 4.42 9.345 4.65 11.791l-.484.53c-1.79-.741-1.724-1.33-2.874-3.246-3.94 1.062-2.461 2.589-5.107 3.198-.518-2.62 2.64-9.617 3.814-12.273"/><path d="M624.661 528.618c2.377-.062 3.453-.38 5.053 1.603-.678.79-2.293.253-4.292 1.051.724 2.688 6.536 3.495 5.125 7.93-1.46 1.476-1.714 1.448-3.776 2.081l-2.99-1.091c-1.159-1.345-.843-.607-1.163-2.205.862-.223 3.375.61 5.077.779l.61-.537-.19-1.212c-1.749-2.777-4.544-1.718-5.417-5.198.455-1.778.716-1.911 1.963-3.2"/><path d="M250.111 528.83c4.13.199 4.45 4.114 5.86 7.658.854-2.565 1.868-6.335 4.392-7.6l.588.288c.06 1.044-.284 1.443-.73 2.49-.899 2.394-2.404 8.247-4.824 8.808-1.33-1.315-4.376-9.48-5.286-11.643"/><path d="m653.571 528.352 1.625.504c1.555 2.003 2.602 6.123 3.427 8.715.827-2.734 1.74-6.227 2.998-8.69l1.158-.123.618.6-.64 2.173c-.75 2.838-1.5 8.285-4.543 9.177-2.436-1.472-4.212-9.436-4.643-12.356"/><path d="M412.202 528.804c1.4-.039 6.93-.235 7.745.689-1.772.904-4.721 2.007-5.513 3.46 1.805 1.908 3.228-.278 5.35 2.27-2.318 1.1-3.02.198-4.685.943-1.188.531-.007 3.57-1.35 4.911l-.98-.137c-1.172-1.542-.592-9.464-.567-12.136"/><path d="M343.534 528.806c2.45-.038 9.67-.906 10.216 1.53l-.737.727c-1.195-.012-1.27-.083-2.387.283-.696 1.898-.365 6.06-.314 8.278l-.377 1.114-1.044.154c-1.574-1.683-.997-7.003-.953-9.685-2.056.022-3.115.437-4.379-.64z"/><path d="M456.417 528.647c2.293-.033 6.793-.222 8.886.143l.542.79-.39.82c-.77.224-1.534.361-2.33.473-.612 1.611-.354 6.312-.326 8.321-.353 1.646.042 1.174-1.39 1.956l-.696-.514c-.708-2.577.12-5.639-.257-9.008-1.224-1.51-.837-.168-3.503-.989z"/><path d="m570.8 528.737 2.69-.053c2.239-.033 4.564-.423 5.929.897l-.215.647-2.477.95c-.548 1.467-.294 6.16-.264 8.016l-.122 1.285-1.082.77c-2.616-1.084.086-6.287-1.596-10.15-1.315-.167-1.316-.092-2.452-.726z"/><path d="M276.933 528.677c1.098.143 1.021.139 1.954.75.786 2.789.427 6.357.379 9.389 2.97-.065 4.331-.816 5.747 1.97-2.078.286-5.823.183-8.043.19z"/><path d="M674.076 528.872c2.107-.119 5.565-.475 7.14.7l-.173.94c-.82.495-1.268.562-2.212.713-.66 1.748-.36 6.306-.315 8.443l-.202.991c-1.113.545-.53.45-1.809.062-.721-2.332.01-5.876-.206-8.294-.2-2.236-.682-.44-2.53-2.14z"/><path d="m683.05 528.751 1.57.463c1.298 1.777.713 9.286.625 11.89l-1.59-.201c-1.693-2.362-.834-9.044-.606-12.152"/><path d="M357.41 528.835c2.668 1.06 1.867 10.509.824 12.507l-1.25-.537c-1.192-2.098-.974-9.889.426-11.97"/><path d="m313.252 528.306 1.43.655c1.21 2.476.576 9.414.418 12.371-.711-.207-1.524-.263-1.744-.756-1.134-2.534-.564-9.738-.104-12.27"/></svg>