<svg xmlns="http://www.w3.org/2000/svg" width="1076" height="1076" viewBox="0 0 1076 1076"><path d="M773.443 392.36c35.293-.142 72.498-.43 107.694.224 6.766 8.546 12.406 20.506 18.671 29.772 19.25 28.473 36.775 58.067 54.44 87.532 6.033 10.061 11.946 20.407 18.404 30.174-3.071 4.947-6.22 9.976-9.182 14.99-17.952 30.377-38.455 59.014-57.9 88.426a2116 2116 0 0 0-16.798 26.042c-2.412 3.758-6.683 10.829-9.398 13.988-27.025.712-55.51-.703-82.641.07-6.473.186-21.013-.32-26.533.361 4.501-6.213 10.11-15.858 14.307-22.473 11.716-18.464 22.62-37.035 34.745-55.268-2.05-2.03-4.225-3.817-6.42-5.686-3.483.557-8.51 1.594-9.683-2.946 1.253-.52 3.512.21 5.113.516l.52-.421.108-1.395c-.729-1.469-2.878-2.418-4.55-3.882-1.85-4.495 1.482-4.51-2.952-13.616-17.283-35.501-4.133-71.985 27.809-93.59l-38.552-63.506c-5.442-9.064-12.547-20.127-17.202-29.312m33.552 176.466 13.522-9.023c7.734-5.588 13.098-19.477 17.49-28.504-7.61-5.409-17.799-13.39-25.233-18.202-11.775 17.886-11.436 35.87-5.78 55.73m78.503 27.593c1.287 6.433 3.076 16.632 5.005 22.603 5.194-1.736 9.782-3.326 14.707-5.78 7.25-4.261 18.694-11.678 23.368-18.732a589 589 0 0 1-24.563-18.35c-6.086 7.828-11.541 13.267-18.517 20.259m23.014-27.899c7.91 5.75 16.276 12.59 24.286 17.787l1.07.456c6.07-5.692 10.562-30.019 10.867-38.729q.05-1.278.05-2.555c-7.295-1.022-14.702-1.97-21.931-3.323-4.23 11.102-7.801 16.584-14.342 26.364m-71.621-49.028 5.817 4.414c6.784-9.776 11.465-15.13 21.725-21.387-1.821-2.677-11.875-18.51-13.262-19.174-10.829 3.166-26.297 14.892-33.543 23.472a427 427 0 0 1 19.263 12.675m11.964 8.685a1092 1092 0 0 1 19.99 12.54l4.225 2.561c4.037-6.833 9.001-12.934 12.746-19.24l-16.407-16.1c-8.02 6.084-14.591 12.015-20.554 20.239m-15.723 30.567c3.628 2.453 15.758 11.328 19.009 11.523.612-.535.999-.81 1.515-1.435 4.29-5.658 10.145-12.546 13.987-18.066-6.974-4.945-15.2-10.716-22.49-15.157-3.851 7.053-8.792 15.79-12.021 23.135m45.827-55.768a281 281 0 0 0 7.048 7.104c2.356 2.17 3.33 2.855 5.928 4.595 3.057-4.564 10.793-15.634 12.665-20.377l-.403-.801c-10.949 2.283-15.212 4.312-25.238 9.479m-65.976 79.426c1.344 1.16 1.225 1.244 2.957 1.382 4.437-1.609 5.962-10.919 6.976-15.226l-.382-.595c-4.368 2.682-9.068 5.454-13.277 8.332 1.223 2.127 2.305 4.1 3.726 6.107m18.822 3.3-1.913 1.095c-.348 1.304-.484.796-.084 1.756l.946-.107.807-1.077c1.227 1.348.332 9.066 1.5 12.329l.792.021c.323-3.572-.39-9.925 1.329-11.616l1.307.028.358-.835c-1.276-1.624-3.056-1.656-5.042-1.594m49.616 2.305c6.303-5.078 10.42-9.453 15.296-15.992-2.851-2.018-21.263-15.882-22.782-16.351-4.702 6.021-9.576 12.468-14.423 18.328 4.698 3.088 16.871 8.126 19.739 12.284.626.91 1.084 1.443 2.17 1.731m-23.05-1.744c-.083 7.766.314 10.294 1.76 17.903.365-2.79.693-7.984 2.652-9.846l.808.026.514.93-.104.518c-.338 1.752-.482 2.045-.074 3.824l.673.291c2.343-3.063 3.177-9.067 1.076-12.531-1.401-.862-5.44-.958-7.304-1.115m-8.473 15.318c1.061-2.652 1.41-3.542 1.941-6.328l.703-.293 1.383 1.017c.83 2.226.55 2.666 2.121 3.784 3.21-3.417-.27-11.6-5.122-13.634-1.218 5.494-1.487 8.07-1.137 13.646zm-11.116-1.603 7.782-.17.187-.29c-2.964-1.112-3.596-1.251-6.743-1.633 1.19.004 1.704.048 2.888.197-.331-3.285-1.436.425-1.058-3.192 2.759-1.095 3.384-.034 4.57-1.488-1.346-2.325-3.046-1.406-4.16-3.387 2.374-1.58 2.48.293 4.936-1.951-.35-2.646-5.947-1.787-8.198-1.708.058 4.716.143 8.9-.204 13.622m-6.933-33.141c-1.472 8.789-2.27 21.981 10.78 13.586l3.916-3.121a329 329 0 0 0-14.696-10.465m38.411 19.333c-1.095 1.567-1.884 2.33-1.988 4.225 1.956 5.108 7.227 3.583 6.057 6.567-1.667-.056-4.576-.423-5.861.37.786 3.141 3.781 2.987 6.43 2.899 1.281-1.442 1.92-1.887 2.271-3.787-1.153-3.385-3.809-2.69-5.775-6.271l.5-.688c2.157-.21 3.036-.175 5.22-.067l.041-.653c-2.685-2.28-3.542-1.981-6.895-2.595m27.493-97.898c2.616-.58 5.692-1.164 8.198-2.004-12.806-5.94-27.26-7.449-41.234-6.415-.8 3.284 7.535 13.289 9.54 16.554 7.058-3.036 16.008-6.49 23.496-8.135m-17.334 58.095c4.129 3.334 18.117 15.095 21.967 16.496 1.052-.613.698-.243 1.206-.949 4.223-6.443 9.043-14.215 11.954-21.323-5.102-1.985-8.989-3.527-13.892-6.027-2.017-1.028-9.006-4.844-10.597-5.31-3.421 5.94-7.204 10.925-10.638 17.113m-42.784 62.332c3.39 1.915 6.318 3.514 9.817 5.209 11.916 5.033 21.932 6.503 34.916 5.936-.438-2.926-1.632-13.317-3.462-14.884-16.25 3.473-23.967 4.809-41.271 3.739m-15.43-22.322c-2.116 1.437-1.597.692-2.62 2.85 1.015 3.863 5.824 3.658 5.066 6.996-1.636.751-1.994.736-3.736 1.054l.09.687c2.962 2.243 3.186 2.285 6.878 1.787 2.007-6.31-2.554-5.623-4.487-9.814a12 12 0 0 0 1.554-1.017l-1.76-1.067c1.666-.812 2.839.617 4.353-.098l-.344-.939c-1.756-.723-3.085-.499-4.994-.439m87.621-132.392c-6.273 1.454-10.196 7.7-8.783 13.982 1.413 6.283 7.634 10.245 13.925 8.872 6.349-1.387 10.354-7.675 8.928-14.015-1.426-6.339-7.74-10.305-14.07-8.839m-95.98 144.908.75-.49c1.098-1.792 1.02-4.017 1.189-6.167 1.712-2.106 2.617-2.706 2.684-5.24-2.188-.164-3.195 2.287-4.229 1.872-.88-.353-2.19-2.285-3.815-2.398.249 4.56.947 7.233 2.554 11.56zm21.587 16.592a145 145 0 0 0-9.237-7.823 1560 1560 0 0 0-11.996 19.535 299 299 0 0 0 9.905 7.139c3.665-5.873 8.092-12.792 11.328-18.851m88.935-115.125c2.731 14.22 2.864 17.474 1.036 32.3 6.007 1.24 11.458 2.021 17.525 2.885 2.756-5.64-12.934-31.01-18.561-35.185m-9.754-5.146c-4.91 7.145-12.509 17.504-16.81 24.687 2.756 1.557 6.451 3.804 9.193 5.187 3.812 1.969 6.837 3.493 10.786 5.133.93-5.725 2.018-31.881-3.17-35.007"/><path d="M812.979 598.03c.25-2.235.132-4.948 1.181-6.655.55 2.09.152 5.393-.314 7.518z"/><path d="m197.716 392.466 68.116.04c12.234.126 30.311 1.234 42.252-.109-13.122 21.777-28.048 44.003-41.816 65.42a6172 6172 0 0 0-50.522 80.593c5.76 9.75 12.595 20.238 18.599 29.985l36.709 59.196c5.097 8.052 34.123 51.266 35.377 56.565-14.28.4-30.65-.089-45.176-.106q-31.995.216-63.988-.15c-2.91-3.435-8.562-12.583-11.164-16.595l-19.61-30.334-33.612-52.926c-9.352-14.596-19.502-29.785-28.517-44.533 4.404-7.7 10.74-17.108 15.62-24.715a4649 4649 0 0 1 32.146-49.539c15.687-24.075 30.29-48.596 45.586-72.792"/><path d="M737.293 490.381c12.948-.803 25.41 2.591 35.22 11.346a41.46 41.46 0 0 1 14.005 29.387 41.75 41.75 0 0 1-10.922 30.297c-7.778 8.518-19.804 13.49-31.21 14.016-12.314 1.294-25.366-2.067-35.256-9.597a38.73 38.73 0 0 1-14.94-25.743c-2.858-21.234 8.889-40.518 29.397-47.097 4.782-1.534 8.7-2.005 13.706-2.609m7.443 69.075c14.248-2.62 23.69-16.27 21.117-30.525-2.575-14.255-16.195-23.741-30.458-21.212-14.328 2.54-23.866 16.236-21.28 30.555s16.31 23.812 30.621 21.182"/><path d="M526.434 492.263c21.931 2.944 53.216-5.899 70.561 12.46 14.774 15.635 13.284 44.022-1.986 59.28-17.306 14.663-46.017 9.558-68.497 10.305.504-7.931.114-21.282.07-29.495a4424 4424 0 0 1-.148-52.55m19.308 16.759c.033 16.411-.689 33.244.098 49.61 11.86-.276 21.017.907 31.712-4.881 10.995-7.744 12.763-25.04 5.162-35.683-7.01-9.814-19.865-9.166-30.527-9.234-2.068.091-4.396.253-6.445.188"/><path d="M391.628 492.663q9.781-.158 19.563.048c3.907 8.88 8.59 18.113 12.713 26.979l25.19 54.23-20.394.283c-2.827-5.687-5.277-10.836-7.71-16.704l-10.681-.056q-14.175-.08-28.347.13c-2.17 3.683-5.55 12.107-7.342 16.38-5.295-.333-15.24.264-21.134.294 11.124-26.864 26.673-53.98 38.142-81.584m-3.157 50.122q6.75-.2 13.5-.13c4.206.014 8.82-.067 12.99.116-2.462-5.072-11.644-26.32-13.832-29.07-4.359 9.46-8.9 19.354-12.658 29.084"/><path d="M619.943 492.319c20.757-.56 44.103-.053 65.107-.028l-.102 16.352-45.778-.093-.075 16.037c13.296.461 28.254.19 41.69.247.066 5.55.085 10.373-.185 15.937a964 964 0 0 1-33.976-.066l-7.416-.094q-.054 8.595.163 17.19c10.926-1.082 34.525.112 46.853.048l.027 16.383c-21.564.372-44.148.034-65.789.078l-.174-52.337c-.02-8.18.396-21.871-.345-29.654"/><path d="m341.91 492.268 19.61.018c-1.72 5.09-3.746 10.32-5.62 15.372-9.04 21.642-16.566 44.855-25.337 66.585l-22.673.011c-8.841-24.33-19.2-48.07-28.627-72.171a147 147 0 0 1-3.447-9.84c6.68-.048 13.524.28 20.3.273 6.427 18.193 15.36 41.29 22.845 59.108 2.539-5.342 6.056-15.234 8.287-21.041z"/><path d="M456.17 492.626c5.178.506 13.725.175 19.083.108-.803 14.813.107 30.373-.235 45.26-.15 6.518-.092 13.92.422 20.357 10.784-.808 30.543-.059 41.74.186-.108 5.493-.091 9.996.128 15.51-18.63.903-41.55-1.39-60.742.157-1.124-26.818-.711-54.756-.395-81.578"/><path d="M443.443 586.406c9.55-.88 14.101 5.032 7.175 12.64-9.063 2.806-12.828-5.29-7.175-12.64m5.478 11.056c2.753-4.92 2.862-8.731-3.92-9.186-2.264 4.561-2.86 9.329 3.92 9.186"/><path d="M321.126 586.469a6.626 6.626 0 1 1 4.654 12.407 6.626 6.626 0 0 1-4.654-12.407m3.72 10.065a4.034 4.034 0 1 0-2.77-7.58 4.034 4.034 0 0 0 2.77 7.58"/><path d="M405.436 585.717c9.21.424 11.586 7.598 4.796 13.486-10.334-.186-11.769-6.57-4.796-13.486m4.08 11.315c2.863-4.971 3.12-8.38-3.81-8.727-2.49 4.828-3.016 8.488 3.81 8.727"/><path d="M767.719 585.694c8.99 2.09 9.913 11.237 1.947 13.906-10.058-1.75-8.89-9.13-1.947-13.906m2.013 12.162c2.962-4.316 4.26-7.585-1.991-9.657-3.337 4.74-3.998 7.198 1.991 9.657"/><path d="M613.248 585.659c2.214 2.065 6.606 10.516 5.325 13.315-1.582-.17-1.633-.787-3.083-2.262-2.752-.808-7.347 1.73-10.404 2.174-2.6.38-5.093.494-7.69.598.224-3.984-.004-9.314-.076-13.36 1.653-.014 5.071-.191 6.254.86-1.594.975-2.172 1.22-3.43 2.655l.127.874c1.565 1.425 3.785 1.538 5.938 1.938-2.001.514-6.477 1.14-7.097 3.09 1.574 2.163 5.654 2.918 8.172 2.26 1.489-1.886 4.444-9.155 5.964-12.142"/><path d="M479.156 585.788c9.06-.162 13.076 3.088 9.183 12.12-2.344 1.044-5.32 2.285-7.785 1.155-2.275-2.496-1.384-9.341-1.398-13.275m7.071 10.876c1.363-3.945 2.042-7.043-3.014-8.34q-.588-.15-1.18-.277c-.308 2.43-.95 5.294-.262 7.528 1.662 1.742 1.923 1.529 4.456 1.09"/><path d="M668.902 585.674c8.37 2.238 9.37 10.583 2.248 13.942-9.43-1.028-8.924-8.812-2.248-13.942m2.421 11.513.31-.979c.885-2.755 1.31-1.682 1.33-4.997-.926-2.368-2.29-2.644-4.553-2.969-2.033 4.63-3.222 7.777 2.913 8.945"/><path d="M572.362 585.763c8.614-.028 12.552 3.672 8.22 12.024-2.683 1.536-4.763 2.205-7.375.37-2.011-3.528-1.127-8.187-.845-12.394m6.485 10.522c1.875-5.297 1.436-6.558-3.755-8.681-.705 2.905-1.823 5.597-.342 8.165 1.769 1.073 1.357.933 4.097.516"/><path d="M714.494 585.837c2.266.015 4.289-.106 6.304.846 1.361 2.307-.36 5.32-.405 7.577-.012.56 1.635 2.963 1.378 4.873-1.82-.346-.95.025-2.464-1.61-1.267-1.39-1.136-1.706-2.681-2.176-1.267 1.417-.937 1.625-1.374 3.827l-.512.257c-2.52-2.995-2.024-5.26-2.517-9.051-.286-2.197.82-2.834 2.27-4.543"/><path d="M678.365 586.415c2.038-.131 3.947-.504 5.643.52 2.21 2.635 2.38 3.427 2.688 6.955l.073.926c.165 1.982.294 2.08-.615 3.937-2.71.474-4.077.957-6.39-.543-2.446-3.23-.76-7.549-1.4-11.795"/><path d="M332.966 586.337c2.856-.137 6.444-.674 8.704 1.019.26 2.518 1.202 9.412-.12 11.384-1.622-.792-1.303-.906-2.476-2.664l-.885-1.236-.935-.125c-1.13 1.33-1.632 1.8-2.884 2.953l-.825-.082c-.676-1.161-.582-9.428-.58-11.249"/><path d="M558.813 585.421c3.557 2.027 5.423 5.674 7.588 9.13-.197-2.201-.904-6.346 1.513-7.272 2.847 1.907 2.012 7.606 1.218 10.374-.784.994-.507.695-1.554 1.433-4.043-1.403-3.638-6.101-6.165-7.724-.303 2.567-.418 5.043-1.385 7.413l-.61-.603.749.383.182-.467-1.102-.506c-.87-4.375-.734-7.712-.434-12.16"/><path d="M622.46 585.84c2.635-.095 4.338-.248 6.657.884 1.778 2.848-.51 5.691.887 9.262.175.45.607 2.123.75 2.637l-.844.574-1.874-.563c-.585-1.747-1.76-3.973-2.587-5.673-.388 2.045-.525 4.49-1.928 5.799-1.989-1.885-1.42-10.136-1.061-12.92"/><path d="M417.404 585.62c4.487 1.432 4.904 3.525 7.46 7.753.239-2.408.207-4.086 1.28-6.248l.688.23c1.022 2.969 1.714 9.609-.108 12.31-3.703-3.003-4.715-5.11-6.81-9.238.02 1.914.26 6.463-1.125 7.689-1.958-2.493-1.458-9.331-1.385-12.496"/><path d="m296.285 586.04 1.586.38c2.12 2.174 6.156 9.672 4.11 12.252-1.74-.593-1.427-.848-2.747-2.759-3.71.44-3.339 1.786-6.191 2.394l-.5-.932c.161-3.683 2.224-7.933 3.742-11.335"/><path d="M777.646 585.559c3.143 1.6 5.556 5.919 7.565 8.92.193-2.016.187-4.696 1.399-6.167l.656.48c1.278 4.055.903 5.884.452 10.021-3.807.586-6.333-5.273-7.978-8.112.062 2.764.245 3.799-.621 6.486l-.66.063c-1.649-4.646-1.157-6.762-.813-11.691"/><path d="M644.33 585.42c.528.248 1.272.727 1.795 1.038.683 2.033.978 3.65 2.483 4.89 2.186-.836 3.507-3.495 4.809-5.508.602 5.975 1.17 8.203-.43 13.946l-1.254-1.006c-.266-1.822-.465-3.946-1.922-5.113l-1.121.414c-2.023 2.245-2.607 4.111-3.81 6.874-.729-4.567-.598-10.796-.55-15.535"/><path d="M548.976 585.426c4.673 2.244 5.378 8.35 5.883 12.98l-.576.47c-1.142-.396-2.435-2.63-3.756-3.772-2.207.812-4.08 3.7-6.098 3.377.41-2.765 3.42-10.087 4.547-13.055"/><path d="M523.686 585.147c4.337 2.998 5.577 9.903 6.833 14.85-1.96-1.667-2.948-2.983-4.571-4.944-1.357.55-4.017 2.35-5.826 3.255l-.568-.49c.37-3.43 2.7-9.401 4.132-12.671"/><path d="M354.112 585.914c2.628.308 7.95.262 10.79.315-1.382 2.432-6.313 8.284-5.653 10.55 1.617.174 4.495.18 5.133 1.865l-1.206.421c-2.39.094-7.994.687-9.624-.677.198-1.285 5.94-8.034 7.242-9.762-2.72-.021-4.828.393-6.84-1.062z"/><path d="M372.279 585.58c2.812 1.926 6.599 8.974 5.32 12.25-1.72-.05-1.39-.28-3.081-1.752-2.401.142-4.305 2.312-6.277.778-.193-1.665 3.153-9.126 4.038-11.276"/><path d="M498.28 585.647c2.298 3.01 5.08 8.499 5.129 12.314l-.57.54c-1.588-.525-2.237-1.903-3.256-3.341-2.156.84-5.145 3.01-7.163 4.346 1.618-5.131 3.247-9.141 5.86-13.859"/><path d="M724.306 585.522c3.765 1.894 2.987 4.522 5.42 9.01l.293.529c.8-3.076 1.6-6.81 4.05-8.95l.938.344-.063-.44-.467.409.607.836-.377 1.311c-.981 3.669-1.398 7.282-4.395 9.507-4.325.236-5.381-9.076-6.006-12.556"/><path d="M701.991 586.005a80 80 0 0 1 2.362-.01c1.7.025 3.764.119 5.01 1.412-1.436 1.03-3.155 1.134-4.993 1.5-.189 1.429 1.894 1.06 3.746 3.61-.999 1.313-1.578 1.08-3.57 1.657-.386 1.216-.324.777-.25 2.116 1.677.676 2.703.96 4.103 2.133-2.314.805-4.196.656-6.653.703-.001-4.413-.042-8.707.245-13.12"/><path d="M283.47 594.25c1.55-3.685 1.952-4.81 4.745-7.66l.738.09c.265 1.713-.389 2.782-1.045 4.42-1.03 2.73-1.501 4.802-3.867 6.367-3.947.125-6.196-8.138-6.465-11.225 1.436.242 1.06.162 2.41.745 1.805 1.99 2.523 4.68 3.484 7.264"/><path d="M691.68 585.746c2.229-.023 4.117-.027 5.966 1.267l-.195.392c-1.391.179-2.418.127-3.454 1.018.808 3.36 4.557 4.074 4.534 8.508-.8 1.607-1.813 1.813-3.479 2.573-2.597-.549-3.807-.35-4.864-2.874 1.826-1.106 3.762.89 5.995-.216-.331-3.748-4.617-3.368-5.888-6.539.047-2.123.232-2.244 1.385-4.13"/><path d="M740.573 586.987c2.455 1.015 5.047 8.923 3.714 11.141-1.686-.535-1.294-.659-2.557-2.576-2.335.97-3.898 2.431-5.888 4.008 1.08-5.919 1.565-7.627 4.73-12.573"/><path d="m456.823 586.117 9.015.296c-2.2 1.11-4.803 2.015-6.364 3.788.672 2.027 2.862.501 4.506 2.678l-.816.446c-2.24.416-2.714.219-3.928 1.636.061 2.155.523 3.362-1.357 4.531l-.687-.54c-.862-2.606-.301-9.289-.369-12.835"/><path d="M389.237 586.099c2.059.537 1.33-.013 2.55 1.292l-.39.741c-7.244 1.452-1.01 7.498-4.347 10.48l-1.318-.499c-.009-2.99-.024-5.72-.187-8.712-1.802-1.893-4.58.524-5.23-2.252 1.733-1.523 6.326-1.039 8.922-1.05"/><path d="M506.035 585.94c3.083-.084 6.11-.232 9.187-.044l.258.73c-3.036 4.964-2.86 3.956-2.71 9.822-.085 1.753.118.898-.925 2.57l-.78-.426c-1.124-2.975-.225-4.821-.598-7.833-.546-4.402-1.687-1.021-4.356-3.166z"/><path d="M632.646 585.936c4.708-.38 6.178.631 9.987.785-1.57.815-1.934 1.096-3.317 2.11-.787 2.137-.545 5.234-.538 7.617.183 1.693.13 1.766-.874 2.765l-.869-.215c-1.171-2.569.043-6.504-1.119-9.992-2.518-.96-2.576-.66-3.27-3.07"/><path d="M306.909 585.57c4.351 1.534 1.984 6.32 2.305 9.529.24 2.388 4.19 1.437 6.786 3.478-2.676.555-6.284.494-9.087.563-.101-4.654-.191-8.903-.004-13.57"/><path d="M752.578 586.138c1.156.003 1.178.238 2.383.82l.108.78-2.84 1.267c-.645 1.707-.396 8.012-.662 10.784-5.337-2.627.607-8.463-3.946-11.833-.522-.387-.39-.399-.45-1.295 1.56-.725 3.556-.508 5.407-.523"/><path d="M756.802 585.938c1.1.294.906.243 1.921.745 1.585 3.764.833 8.606.545 12.714l-1.763-.754c-1.916-2.878-.958-9.056-.703-12.705"/><path d="m346.848 585.48 1.28.802c1.742 3.06.923 9.04.545 12.513l-1.158-.085c-1.681-2.43-.84-9.937-.667-13.23"/><path d="M396.078 586.524c3.051 1.848 2.172 9.594.912 12.397l-.912-.742c-.915-2.61-1.368-9.195 0-11.655"/></svg>